<?xml version="1.0" encoding="utf-8"?>
<!-- Generator: Adobe Illustrator 25.0.1, SVG Export Plug-In . SVG Version: 6.00 Build 0)  -->
<svg version="1.1" id="레이어_1" xmlns="http://www.w3.org/2000/svg" xmlns:xlink="http://www.w3.org/1999/xlink" x="0px"
	 y="0px" viewBox="0 0 768 768" style="enable-background:new 0 0 768 768;" xml:space="preserve">
<style type="text/css">
	.st0{opacity:0.4;}
	.st1{fill:none;}
	.st2{fill:#01B455;}
</style>
<g id="그룹_293" transform="translate(477.433 841.484)" class="st0">
	<g id="패스_657" transform="translate(40.821 -322.803)">
		<path class="st1" d="M-132.94-171.71c36.29,1.21,59.25-25.56,59.17-24.98c0.07,0.11-24.56,24.98-24.56,59.59
			c0,30.87,25.33,58.8,24.85,59.3c-0.04,0.19-22.37-24.69-59.46-24.69s-59.21,25.39-59.47,24.68c-0.25-0.5,24.86-26.52,24.86-59.29
			c0-36.67-24.41-59.3-24.77-59.38C-192.15-196.75-166.59-171.71-132.94-171.71z"/>
		<path class="st2" d="M-76.88-193.42c-15.64,14.22-34.58,22.01-53.67,22.01c-0.79,0-1.6-0.01-2.39-0.04
			c-18.45,0-38.18-7.74-55.89-21.86c0.23,0.26,0.47,0.54,0.73,0.83c2.11,2.44,5.31,6.48,8.52,11.85
			c5.61,9.35,12.29,24.49,12.29,43.54c0,18.83-7.97,38.28-23.68,57.81c17.46-15.56,36.98-23.45,58.04-23.45
			c29.9,0,50.59,16.31,57.93,23.13c-0.08-0.11-0.16-0.21-0.24-0.32c-5.77-7.72-23.33-31.2-23.33-57.17
			C-98.58-163.41-84.24-184.39-76.88-193.42 M-73.77-196.69C-73.76-196.69-73.76-196.69-73.77-196.69
			c0.08,0.12-24.55,24.99-24.55,59.6c0,30.87,25.33,58.8,24.85,59.3c0,0,0,0,0,0c-0.2,0-22.51-24.69-59.46-24.69
			c-36.58,0-58.59,24.69-59.45,24.69c-0.01,0-0.02,0-0.02-0.01c-0.25-0.5,24.86-26.52,24.86-59.29c0-36.67-24.41-59.3-24.77-59.38
			c0,0,0,0,0.01,0c0.45,0,25.91,24.77,59.38,24.77c0.8,0.03,1.6,0.04,2.38,0.04C-96.03-171.67-74.18-196.69-73.77-196.69z"/>
	</g>
	<g id="패스_658" transform="translate(36.288 -327.334)">
		<path class="st1" d="M-128.41-168.51c37.69,1.25,61.53-26.55,61.46-25.94c0.07,0.12-25.51,25.94-25.51,61.89
			c0,32.06,26.3,61.07,25.81,61.59c-0.04,0.2-23.24-25.64-61.76-25.64s-61.5,26.37-61.77,25.63c-0.25-0.52,25.82-27.55,25.82-61.58
			c0-38.09-25.36-61.59-25.73-61.68C-189.9-194.52-163.36-168.51-128.41-168.51z"/>
		<path class="st2" d="M-70.09-191.16c-16.27,14.82-35.97,22.94-55.83,22.94c-0.82,0-1.66-0.01-2.48-0.04
			c-19.2,0-39.72-8.06-58.14-22.77c0.26,0.29,0.54,0.61,0.83,0.95c2.19,2.54,5.51,6.73,8.85,12.31
			c5.82,9.71,12.76,25.43,12.76,45.22c0,19.59-8.3,39.82-24.66,60.12c0,0,0,0,0,0.01c18.15-16.21,38.46-24.43,60.37-24.43
			c31.16,0,52.69,17.06,60.24,24.1c-0.1-0.14-0.21-0.28-0.32-0.42c-5.99-8.01-24.23-32.4-24.23-59.37
			C-92.71-159.99-77.71-181.84-70.09-191.16 M-66.95-194.46C-66.94-194.46-66.94-194.46-66.95-194.46
			c0.08,0.13-25.5,25.95-25.5,61.9c0,32.06,26.3,61.07,25.81,61.59c0,0,0,0,0,0c-0.21,0-23.38-25.64-61.76-25.64
			c-37.99,0-60.86,25.65-61.75,25.65c-0.01,0-0.02-0.01-0.02-0.02c-0.26-0.52,25.82-27.55,25.82-61.58
			c0-38.09-25.36-61.59-25.73-61.68c0,0,0,0,0.01,0c0.47,0,26.91,25.73,61.67,25.73c0.83,0.03,1.66,0.04,2.48,0.04
			C-90.07-168.47-67.37-194.46-66.95-194.46z"/>
	</g>
	<g id="패스_659" transform="translate(31.824 -331.797)">
		<path class="st1" d="M-123.94-165.36c39.07,1.3,63.79-27.52,63.71-26.89c0.08,0.12-26.44,26.89-26.44,64.16
			c0,33.24,27.27,63.31,26.76,63.85c-0.04,0.2-24.09-26.58-64.03-26.58s-63.75,27.34-64.04,26.57
			c-0.27-0.53,26.77-28.56,26.77-63.84c0-39.48-26.29-63.85-26.67-63.94C-187.69-192.32-160.17-165.36-123.94-165.36z"/>
		<path class="st2" d="M-63.41-188.93c-16.88,15.42-37.34,23.87-57.97,23.87c-0.85,0-1.72-0.01-2.57-0.04
			c-19.93,0-41.24-8.38-60.35-23.68c0.29,0.33,0.61,0.68,0.94,1.06c2.27,2.63,5.71,6.98,9.18,12.76
			c6.03,10.06,13.23,26.36,13.23,46.87c0,20.3-8.6,41.27-25.57,62.32c-0.03,0.03-0.05,0.06-0.08,0.09c0.01-0.01,0.02-0.02,0.04-0.03
			c18.83-16.83,39.9-25.37,62.62-25.37c32.41,0,54.76,17.8,62.52,25.05c-0.13-0.17-0.26-0.34-0.39-0.52
			c-6.21-8.31-25.12-33.59-25.12-61.54C-86.92-156.62-71.27-179.32-63.41-188.93 M-60.23-192.26c0,0,0.01,0,0.01,0.01
			c0.08,0.12-26.44,26.89-26.44,64.16c0,33.24,27.27,63.31,26.76,63.85c0,0,0,0,0,0c-0.22,0-24.24-26.58-64.02-26.58
			c-39.38,0-63.09,26.59-64.01,26.59c-0.01,0-0.02-0.01-0.03-0.02c-0.27-0.53,26.77-28.56,26.77-63.84
			c0-39.48-26.29-63.85-26.67-63.94c0,0,0,0,0.01,0c0.48,0,27.9,26.67,63.93,26.67c0.86,0.03,1.72,0.04,2.57,0.04
			C-84.2-165.31-60.67-192.26-60.23-192.26z"/>
	</g>
	<g id="패스_660" transform="translate(27.413 -336.207)">
		<path class="st1" d="M-119.53-162.24c40.43,1.35,66.02-28.48,65.94-27.83c0.08,0.13-27.37,27.83-27.37,66.4
			c0,34.4,28.22,65.52,27.69,66.08c-0.04,0.21-24.93-27.51-66.26-27.51s-65.98,28.29-66.27,27.5c-0.28-0.55,27.7-29.55,27.7-66.07
			c0-40.86-27.2-66.08-27.6-66.17C-185.5-190.15-157.03-162.24-119.53-162.24z"/>
		<path class="st2" d="M-56.79-186.73c-17.48,16.01-38.69,24.78-60.08,24.78c-0.88,0-1.78-0.01-2.66-0.04
			c-20.65,0-42.74-8.7-62.54-24.57c0.33,0.36,0.67,0.76,1.04,1.18c2.35,2.72,5.91,7.22,9.49,13.2c6.24,10.41,13.69,27.28,13.69,48.5
			c0,21.01-8.9,42.71-26.46,64.49c-0.05,0.06-0.1,0.12-0.15,0.18c0.04-0.03,0.08-0.07,0.12-0.11c19.49-17.42,41.29-26.25,64.8-26.25
			c33.64,0,56.81,18.53,64.77,25.99c-0.15-0.2-0.3-0.41-0.46-0.62c-6.43-8.6-25.99-34.76-25.99-63.69
			C-81.21-153.29-64.91-176.85-56.79-186.73 M-53.6-190.09c0.01,0,0.01,0,0.01,0.01c0.08,0.13-27.37,27.83-27.37,66.4
			c0,34.4,28.22,65.52,27.69,66.08c0,0,0,0,0,0c-0.23,0-25.08-27.51-66.26-27.51c-40.76,0-65.29,27.52-66.25,27.52
			c-0.01,0-0.02-0.01-0.03-0.02c-0.28-0.55,27.7-29.55,27.7-66.07c0-40.86-27.2-66.08-27.6-66.17c0,0,0,0,0.01,0
			c0.5,0,28.87,27.6,66.17,27.6c0.89,0.03,1.78,0.04,2.66,0.04C-78.4-162.2-54.05-190.08-53.6-190.09z"/>
	</g>
	<g id="패스_661" transform="translate(20.603 -343.014)">
		<path class="st1" d="M-112.72-157.44c42.54,1.42,69.46-29.96,69.37-29.28c0.08,0.13-28.79,29.28-28.79,69.86
			c0,36.19,29.69,68.93,29.13,69.52c-0.04,0.22-26.23-28.94-69.71-28.94s-69.41,29.77-69.73,28.93
			c-0.29-0.58,29.14-31.09,29.14-69.51c0-42.99-28.62-69.52-29.04-69.62C-182.13-186.79-152.17-157.44-112.72-157.44z"/>
		<path class="st2" d="M-46.59-183.34c-18.42,16.92-40.78,26.2-63.34,26.2c-0.93,0-1.87-0.02-2.8-0.05
			c-21.77,0-45.06-9.19-65.92-25.95c0.37,0.41,0.78,0.87,1.21,1.37c2.47,2.86,6.22,7.6,9.99,13.89c6.57,10.95,14.4,28.7,14.4,51.02
			c0,22.1-9.36,44.93-27.83,67.84c-0.09,0.11-0.17,0.21-0.26,0.32c0.08-0.07,0.16-0.14,0.24-0.22
			c20.5-18.32,43.43-27.62,68.17-27.62c35.54,0,59.98,19.66,68.24,27.44c-0.18-0.24-0.38-0.5-0.58-0.77
			c-6.76-9.04-27.34-36.56-27.34-67C-72.39-148.16-55.08-173.03-46.59-183.34 M-43.35-186.73c0.01,0,0.01,0,0.01,0.01
			c0.08,0.13-28.79,29.28-28.79,69.86c0,36.19,29.69,68.93,29.13,69.52c0,0,0,0,0,0c-0.24,0-26.39-28.94-69.71-28.94
			c-42.88,0-68.69,28.95-69.7,28.95c-0.01,0-0.02-0.01-0.03-0.02c-0.29-0.58,29.15-31.09,29.15-69.51
			c0-42.99-28.62-69.52-29.04-69.62c0,0,0,0,0.01,0c0.53,0,30.38,29.04,69.61,29.04c0.94,0.03,1.87,0.05,2.8,0.05
			C-69.45-157.39-43.83-186.73-43.35-186.73z"/>
	</g>
	<g id="패스_662" transform="translate(12.541 -351.074)">
		<path class="st1" d="M-104.66-151.75c45.03,1.5,73.53-31.72,73.44-31c0.09,0.14-30.48,31-30.48,73.96
			c0,38.31,31.43,72.97,30.84,73.6c-0.05,0.23-27.77-30.64-73.8-30.64s-73.48,31.51-73.81,30.63c-0.31-0.62,30.85-32.92,30.85-73.59
			c0-45.51-30.3-73.59-30.74-73.7C-178.14-182.83-146.42-151.75-104.66-151.75z"/>
		<path class="st2" d="M-34.5-179.32c-19.53,18-43.26,27.88-67.2,27.88c-0.98,0-1.98-0.02-2.96-0.05c-23.09,0-47.8-9.77-69.92-27.59
			c0.43,0.47,0.9,1,1.41,1.59c2.62,3.03,6.58,8.04,10.57,14.7c6.95,11.59,15.24,30.37,15.24,54.01c0,23.39-9.91,47.55-29.46,71.81
			c-0.13,0.17-0.26,0.32-0.38,0.48c0.13-0.11,0.26-0.23,0.39-0.35c21.7-19.4,45.97-29.23,72.16-29.23
			c37.8,0,63.73,21.01,72.36,29.16c-0.22-0.3-0.46-0.62-0.71-0.95c-7.16-9.57-28.94-38.7-28.94-70.92
			C-61.95-142.09-43.44-168.51-34.5-179.32 M-31.22-182.76c0.01,0,0.01,0,0.01,0.01c0.09,0.14-30.48,31-30.48,73.96
			c0,38.31,31.43,72.97,30.84,73.6c0,0,0,0,0,0c-0.25,0-27.94-30.64-73.8-30.64c-45.39,0-72.72,30.65-73.78,30.65
			c-0.01,0-0.02-0.01-0.03-0.02c-0.31-0.62,30.85-32.92,30.85-73.59c0-45.51-30.3-73.59-30.74-73.7c0,0,0,0,0.01,0
			c0.56,0,32.16,30.74,73.69,30.74c0.99,0.03,1.98,0.05,2.96,0.05C-58.85-151.7-31.73-182.76-31.22-182.76z"/>
	</g>
	<g id="패스_663" transform="translate(4.873 -358.738)">
		<path class="st1" d="M-96.99-146.33c47.41,1.58,77.4-33.39,77.31-32.63c0.09,0.15-32.09,32.63-32.09,77.85
			c0,40.33,33.09,76.82,32.47,77.48c-0.05,0.25-29.23-32.25-77.69-32.25s-77.35,33.17-77.7,32.24
			c-0.32-0.65,32.48-34.65,32.48-77.46c0-47.91-31.89-77.47-32.36-77.58C-174.34-179.05-140.95-146.33-96.99-146.33z"/>
		<path class="st2" d="M-23-175.51c-20.58,19.04-45.62,29.48-70.88,29.48c-1.03,0-2.08-0.02-3.12-0.05
			c-24.35,0-50.41-10.32-73.73-29.15c0.49,0.53,1.02,1.13,1.6,1.8c2.76,3.19,6.93,8.46,11.13,15.47
			c7.32,12.2,16.04,31.97,16.04,56.85c0,24.62-10.43,50.05-31.01,75.59c-0.17,0.22-0.34,0.43-0.5,0.62
			c0.17-0.15,0.35-0.31,0.53-0.47c22.84-20.42,48.39-30.77,75.95-30.77c39.94,0,67.3,22.29,76.27,30.8
			c-0.26-0.35-0.54-0.73-0.84-1.12c-7.53-10.08-30.46-40.74-30.46-74.64C-52.02-136.33-32.36-164.23-23-175.51 M-19.69-178.98
			c0.01,0,0.01,0,0.01,0.01c0.09,0.15-32.09,32.63-32.09,77.85c0,40.33,33.09,76.82,32.47,77.48c0,0,0,0,0,0
			c-0.27,0-29.41-32.26-77.69-32.26c-47.78,0-76.55,32.26-77.67,32.26c-0.02,0-0.03-0.01-0.03-0.02
			c-0.32-0.65,32.48-34.65,32.48-77.46c0-47.91-31.9-77.47-32.36-77.58c0,0,0,0,0.01,0c0.59,0,33.85,32.36,77.58,32.36
			c1.04,0.03,2.09,0.05,3.11,0.05C-48.77-146.28-20.22-178.98-19.69-178.98z"/>
	</g>
	<g id="패스_664" transform="translate(-2.547 -366.157)">
		<path class="st1" d="M-89.57-141.1c49.7,1.66,81.15-35.01,81.05-34.21c0.1,0.16-33.64,34.21-33.64,81.62
			c0,42.28,34.69,80.54,34.04,81.23c-0.05,0.26-30.65-33.82-81.45-33.82s-81.1,34.78-81.46,33.8c-0.34-0.68,34.05-36.33,34.05-81.21
			c0-50.23-33.44-81.22-33.93-81.34C-170.67-175.4-135.66-141.1-89.57-141.1z"/>
		<path class="st2" d="M-11.86-171.82c-21.6,20.04-47.91,31.03-74.44,31.03c-1.08,0-2.18-0.02-3.27-0.05
			c-25.57,0-52.94-10.86-77.42-30.66c0.54,0.59,1.14,1.26,1.78,2.01c2.89,3.34,7.26,8.87,11.67,16.22
			c7.67,12.79,16.82,33.52,16.82,59.59c0,25.81-10.94,52.47-32.51,79.24c-0.22,0.27-0.43,0.53-0.62,0.77
			c0.21-0.18,0.43-0.39,0.67-0.59c23.94-21.4,50.73-32.25,79.62-32.25c42.03,0,70.76,23.54,80.06,32.38
			c-0.29-0.39-0.62-0.83-0.96-1.29C-18.37-26-42.41-58.14-42.41-93.68C-42.41-130.76-21.63-160.09-11.86-171.82 M-8.52-175.32
			c0.01,0,0.01,0,0.01,0.01c0.1,0.16-33.64,34.21-33.64,81.62c0,42.28,34.69,80.54,34.04,81.23c0,0,0,0,0,0
			c-0.28,0-30.83-33.82-81.45-33.82c-50.1,0-80.26,33.82-81.43,33.82c-0.02,0-0.03-0.01-0.03-0.02
			c-0.34-0.68,34.05-36.33,34.05-81.21c0-50.23-33.44-81.22-33.93-81.34c0,0,0,0,0.01,0c0.61,0,35.49,33.93,81.33,33.93
			c1.1,0.04,2.19,0.05,3.27,0.05C-39.01-141.04-9.08-175.32-8.52-175.32z"/>
	</g>
	<g id="패스_665" transform="translate(-13.295 -376.9)">
		<path class="st1" d="M-78.82-133.51c53.03,1.77,86.58-37.35,86.48-36.5c0.1,0.17-35.89,36.5-35.89,87.08
			C-28.24-37.82,8.77,3,8.08,3.74c-0.06,0.27-32.7-36.08-86.9-36.08s-86.52,37.1-86.91,36.06c-0.36-0.73,36.33-38.76,36.33-86.65
			c0-53.59-35.68-86.66-36.2-86.78C-165.34-170.11-128-133.51-78.82-133.51z"/>
		<path class="st2" d="M4.27-166.48c-23.08,21.49-51.22,33.28-79.61,33.28c-1.16,0-2.33-0.02-3.49-0.06
			c-27.34,0-56.61-11.64-82.77-32.85c0.61,0.67,1.3,1.44,2.06,2.31c3.08,3.57,7.75,9.47,12.44,17.3
			c8.18,13.65,17.94,35.75,17.94,63.57c0,27.53-11.67,55.97-34.68,84.53c-0.28,0.35-0.55,0.68-0.78,0.97
			c0.26-0.23,0.55-0.49,0.86-0.76c25.54-22.83,54.11-34.41,84.93-34.41c45.05,0,75.78,25.35,85.54,34.68C6.39,1.63,6,1.11,5.58,0.55
			c-8.43-11.27-34.07-45.56-34.07-83.48C-28.49-122.69-6.07-154.11,4.27-166.48 M7.65-170.03c0.01,0,0.01,0,0.01,0.01
			c0.1,0.17-35.89,36.5-35.89,87.08C-28.24-37.82,8.77,3,8.08,3.74c0,0,0,0,0,0c-0.3,0-32.9-36.08-86.9-36.08
			c-53.45,0-85.62,36.08-86.88,36.08c-0.02,0-0.03-0.01-0.03-0.02C-166.1,3-129.4-35.04-129.4-82.93c0-53.59-35.68-86.66-36.2-86.78
			c0,0,0,0,0.01,0c0.66,0,37.86,36.2,86.77,36.2c1.17,0.04,2.33,0.06,3.48,0.06C-24.88-133.45,7.05-170.02,7.65-170.03z"/>
	</g>
	<g id="패스_666" transform="translate(-24.912 -388.514)">
		<path class="st1" d="M-67.2-125.31c56.62,1.89,92.45-39.88,92.34-38.97c0.11,0.18-38.32,38.97-38.32,92.99
			c0,48.17,39.52,91.75,38.78,92.54c-0.06,0.29-34.91-38.52-92.79-38.52s-92.39,39.62-92.8,38.51
			c-0.39-0.77,38.79-41.39,38.79-92.52c0-57.22-38.09-92.53-38.65-92.66C-159.59-164.39-119.71-125.31-67.2-125.31z"/>
		<path class="st2" d="M21.71-160.72C-2.97-137.66-33.1-125-63.48-125c-1.23,0-2.49-0.02-3.72-0.06
			c-29.26,0-60.58-12.48-88.56-35.22c0.7,0.75,1.49,1.63,2.36,2.64c3.29,3.81,8.27,10.11,13.29,18.47
			c8.74,14.57,19.15,38.17,19.15,67.87c0,29.4-12.46,59.76-37.03,90.25c-0.35,0.44-0.68,0.85-0.96,1.19
			c0.32-0.28,0.68-0.6,1.06-0.94c27.27-24.38,57.78-36.73,90.68-36.73c48.32,0,81.21,27.32,91.47,37.16c-0.37-0.5-0.81-1.1-1.34-1.8
			c-9-12.03-36.38-48.64-36.38-89.12C-13.44-113.98,10.75-147.67,21.71-160.72 M25.13-164.3c0.01,0,0.01,0,0.01,0.01
			c0.11,0.18-38.32,38.97-38.32,92.99c0,48.17,39.52,91.75,38.78,92.54c0,0,0,0,0,0c-0.32,0-35.13-38.53-92.79-38.53
			c-57.07,0-91.43,38.53-92.77,38.53c-0.02,0-0.03-0.01-0.04-0.02c-0.39-0.77,38.79-41.39,38.79-92.52
			c0-57.22-38.09-92.53-38.65-92.66c0,0,0,0,0.01,0c0.7,0,40.43,38.65,92.65,38.65c1.25,0.04,2.49,0.06,3.72,0.06
			C-9.61-125.25,24.49-164.3,25.13-164.3z"/>
	</g>
	<g id="패스_667" transform="translate(-35.709 -399.307)">
		<path class="st1" d="M-56.41-117.69c59.96,2,97.9-42.23,97.78-41.27c0.12,0.19-40.59,41.27-40.59,98.47
			c0,51.01,41.85,97.16,41.06,98c-0.06,0.31-36.97-40.8-98.26-40.8s-97.84,41.96-98.28,40.78c-0.41-0.82,41.08-43.83,41.08-97.98
			c0-60.6-40.34-97.99-40.93-98.13C-154.24-159.07-112.01-117.69-56.41-117.69z"/>
		<path class="st2" d="M37.93-155.37c-26.17,24.53-58.14,38-90.39,38c-1.31,0-2.63-0.02-3.94-0.07c-31.04,0-64.27-13.27-93.94-37.43
			c0.77,0.83,1.66,1.81,2.65,2.95c3.49,4.03,8.76,10.7,14.07,19.56c9.25,15.43,20.28,40.42,20.28,71.87
			c0,31.13-13.19,63.28-39.21,95.56c-0.42,0.52-0.8,1-1.11,1.39c0.36-0.32,0.79-0.7,1.25-1.11c28.87-25.81,61.18-38.9,96.02-38.9
			c51.36,0,86.26,29.15,96.98,39.47c-0.4-0.55-0.91-1.23-1.52-2.04C29.53,21.14,0.54-17.63,0.54-60.49
			C0.54-105.9,26.4-141.69,37.93-155.37 M41.37-158.98c0.01,0,0.01,0.01,0.01,0.02c0.12,0.19-40.59,41.27-40.59,98.47
			c0,51.01,41.85,97.16,41.06,97.99c0,0,0,0,0,0c-0.34,0-37.2-40.8-98.26-40.8c-60.44,0-96.82,40.8-98.24,40.8
			c-0.02,0-0.03-0.01-0.04-0.02c-0.41-0.82,41.08-43.83,41.08-97.98c0-60.6-40.34-97.99-40.93-98.13c0,0,0,0,0.01,0
			c0.74,0,42.82,40.93,98.12,40.93c1.32,0.04,2.64,0.07,3.94,0.07C4.58-117.63,40.69-158.98,41.37-158.98z"/>
	</g>
	<g id="패스_668" transform="translate(-50.648 -414.241)">
		<path class="st1" d="M-41.47-107.15C23.12-105,63.98-152.64,63.85-151.6c0.13,0.2-43.71,44.45-43.71,106.06
			c0,54.94,45.08,104.65,44.23,105.55C64.3,60.34,24.55,16.07-41.47,16.07s-105.38,45.19-105.85,43.92
			c-0.44-0.88,44.25-47.21,44.25-105.53c0-65.27-43.45-105.54-44.08-105.69C-146.85-151.72-101.36-107.15-41.47-107.15z"/>
		<path class="st2" d="M60.37-147.98c-28.22,26.56-62.76,41.16-97.59,41.16c-1.41,0-2.84-0.02-4.25-0.07
			c-33.5,0-69.38-14.36-101.39-40.5c0.87,0.93,1.9,2.06,3.05,3.39c3.75,4.34,9.43,11.52,15.15,21.06
			c9.96,16.61,21.84,43.53,21.84,77.39c0,33.52-14.21,68.15-42.22,102.91c-0.51,0.63-0.97,1.21-1.33,1.66
			c0.42-0.36,0.94-0.83,1.5-1.33c31.09-27.8,65.88-41.89,103.4-41.89c55.57,0,93.25,31.69,104.61,42.66
			c-0.45-0.63-1.05-1.42-1.77-2.38C51.11,42.37,19.89,0.62,19.89-45.54C19.89-94.73,48.07-133.44,60.37-147.98 M63.84-151.62
			c0.01,0,0.01,0.01,0.01,0.02c0.13,0.2-43.71,44.45-43.71,106.06c0,54.94,45.08,104.65,44.23,105.55c0,0,0,0,0,0
			c-0.36,0-40.07-43.94-105.83-43.94c-65.1,0-104.28,43.95-105.81,43.95c-0.02,0-0.04-0.01-0.04-0.03
			c-0.44-0.88,44.25-47.2,44.25-105.53c0-65.27-43.45-105.54-44.08-105.69c0,0,0,0,0.01,0c0.8,0,46.12,44.09,105.68,44.09
			c1.42,0.05,2.84,0.07,4.24,0.07C24.22-107.08,63.12-151.62,63.84-151.62z"/>
	</g>
	<g id="패스_669" transform="translate(-65.376 -428.963)">
		<path class="st1" d="M-26.74-96.75c69.14,2.3,112.89-48.7,112.75-47.59c0.14,0.22-46.8,47.59-46.8,113.54
			c0,58.82,48.26,112.03,47.35,112.99c-0.07,0.36-42.63-47.04-113.3-47.04s-112.81,48.38-113.32,47.02
			c-0.47-0.95,47.37-50.53,47.37-112.97c0-69.87-46.52-112.98-47.19-113.15C-139.55-144.47-90.86-96.75-26.74-96.75z"/>
		<path class="st2" d="M82.5-140.7C52.25-112.12,15.18-96.42-22.2-96.42c-1.51,0-3.04-0.03-4.55-0.08
			c-35.94,0-74.43-15.43-108.74-43.52c0.97,1.04,2.14,2.31,3.45,3.83c4.02,4.65,10.09,12.34,16.22,22.55
			c10.67,17.78,23.38,46.59,23.38,82.85c0,35.88-15.21,72.95-45.2,110.16c-0.6,0.75-1.14,1.42-1.53,1.92
			c0.47-0.4,1.08-0.95,1.74-1.54C-104.14,49.99-66.9,34.9-26.74,34.9c59.73,0,100.14,34.2,112.12,45.81
			c-0.5-0.69-1.18-1.6-2.01-2.72C72.38,63.31,38.96,18.61,38.96-30.8C38.96-83.73,69.44-125.32,82.5-140.7 M86-144.36
			c0.01,0,0.01,0.01,0.01,0.02c0.14,0.22-46.8,47.59-46.8,113.54c0,58.82,48.26,112.03,47.35,112.99c0,0,0,0,0,0
			c-0.39,0-42.89-47.04-113.3-47.04c-69.69,0-111.64,47.05-113.28,47.05c-0.02,0-0.04-0.01-0.04-0.03
			c-0.47-0.95,47.37-50.53,47.37-112.97c0-69.87-46.52-112.98-47.19-113.15c0,0,0.01,0,0.01,0c0.86,0,49.37,47.2,113.14,47.2
			c1.52,0.05,3.04,0.08,4.54,0.08C43.58-96.68,85.22-144.36,86-144.36z"/>
	</g>
	<g id="패스_670" transform="translate(-84.994 -448.574)">
		<path class="st1" d="M-7.12-82.91c75.21,2.5,122.8-52.97,122.65-51.77c0.15,0.24-50.91,51.77-50.91,123.51
			c0,63.98,52.49,121.86,51.5,122.91c-0.08,0.39-46.37-51.17-123.25-51.17s-122.72,52.63-123.27,51.15
			c-0.51-1.03,51.53-54.97,51.53-122.89c0-76.01-50.6-122.9-51.34-123.08C-129.84-134.81-76.87-82.91-7.12-82.91z"/>
		<path class="st2" d="M111.99-131.01C79.03-99.75,38.6-82.57-2.18-82.57c-1.64,0-3.3-0.03-4.95-0.08
			c-39.18,0-81.15-16.86-118.54-47.56c1.11,1.17,2.45,2.64,3.99,4.42c4.37,5.06,10.98,13.42,17.64,24.52
			c11.6,19.34,25.43,50.68,25.43,90.11c0,39.03-16.54,79.34-49.16,119.82c-0.72,0.9-1.36,1.69-1.8,2.25
			c0.53-0.45,1.26-1.1,2.06-1.81C-91.31,76.74-50.8,60.33-7.12,60.33c29.99,0,58.86,7.73,85.78,22.97
			c9.43,5.34,23.33,14.33,36.34,27.02c-0.56-0.78-1.34-1.83-2.33-3.16c-11.95-15.98-48.3-64.59-48.3-118.33
			C64.37-69.1,97.94-114.55,111.99-131.01 M115.52-134.69c0.01,0,0.01,0.01,0.01,0.02c0.15,0.24-50.9,51.77-50.9,123.51
			c0,63.98,52.49,121.86,51.5,122.91c0,0,0,0,0,0c-0.42,0-46.66-51.17-123.25-51.17c-75.81,0-121.44,51.18-123.22,51.18
			c-0.03,0-0.04-0.01-0.05-0.03c-0.51-1.03,51.53-54.97,51.53-122.89c0-76.01-50.6-122.9-51.34-123.08c0,0,0.01,0,0.01,0
			c0.93,0,53.7,51.34,123.07,51.34c1.66,0.06,3.31,0.08,4.94,0.08C69.38-82.82,114.67-134.69,115.52-134.69z"/>
	</g>
	<g id="패스_671" transform="translate(-108.857 -472.43)">
		<path class="st1" d="M16.74-66.06c82.59,2.75,134.85-58.17,134.69-56.85c0.16,0.26-55.9,56.85-55.9,135.64
			c0,70.26,57.64,133.83,56.56,134.98c-0.09,0.43-50.93-56.19-135.35-56.19s-134.76,57.79-135.37,56.17
			c-0.56-1.13,56.58-60.37,56.58-134.95c0-83.47-55.57-134.97-56.38-135.16C-118.02-123.06-59.85-66.06,16.74-66.06z"/>
		<path class="st2" d="M147.88-119.24C111.63-84.7,67.09-65.72,22.17-65.72c-1.8,0-3.63-0.03-5.43-0.09
			c-43.13,0-89.34-18.61-130.47-52.48c1.27,1.33,2.84,3.04,4.66,5.15c4.8,5.55,12.05,14.73,19.37,26.93
			c12.74,21.24,27.92,55.64,27.92,98.94c0,27.41-7.67,55.94-22.79,84.79c-12.09,23.07-25.48,39.68-31.19,46.77
			c-0.87,1.09-1.64,2.03-2.11,2.65c0.07-0.06,0.15-0.13,0.24-0.2c0.54-0.46,1.27-1.11,2.19-1.93
			c39.75-35.54,84.23-53.55,132.19-53.55c32.93,0,64.63,8.49,94.19,25.22c10.4,5.89,25.76,15.83,40.1,29.86
			c-0.04-0.06-0.09-0.12-0.13-0.19c-0.61-0.86-1.49-2.03-2.59-3.51c-6.32-8.46-19.48-26.05-31.18-49.07
			c-14.5-28.53-21.85-55.73-21.85-80.86C95.28-51.33,132.65-101.48,147.88-119.24 M151.42-122.93c0.01,0,0.01,0.01,0.01,0.02
			c0.16,0.26-55.9,56.85-55.9,135.64c0,70.26,57.64,133.83,56.56,134.98c0,0,0,0,0,0c-0.46,0-51.24-56.19-135.34-56.19
			c-83.25,0-133.36,56.2-135.32,56.2c-0.03,0-0.05-0.01-0.05-0.03c-0.56-1.13,56.58-60.37,56.58-134.95
			c0-83.47-55.57-134.97-56.38-135.16c0,0,0.01-0.01,0.01-0.01c1.02,0,58.98,56.38,135.15,56.38c1.82,0.06,3.64,0.09,5.43,0.09
			C100.75-65.97,150.49-122.93,151.42-122.93z"/>
	</g>
	<g id="패스_672" transform="translate(-135.552 -499.116)">
		<path class="st1" d="M43.44-47.22c90.85,3.03,148.33-63.99,148.15-62.53c0.18,0.28-61.49,62.53-61.49,149.2
			c0,77.29,63.41,147.21,62.22,148.47c-0.1,0.47-56.02-61.81-148.88-61.81s-148.24,63.57-148.9,61.79
			c-0.62-1.24,62.24-66.4,62.24-148.45c0-91.81-61.12-148.46-62.01-148.68C-104.8-109.92-40.81-47.22,43.44-47.22z"/>
		<path class="st2" d="M187.99-106.04C148.06-67.86,98.95-46.87,49.41-46.87c-1.98,0-3.99-0.03-5.97-0.1
			c-47.55,0-98.51-20.57-143.84-57.99c1.44,1.5,3.28,3.49,5.42,5.97c5.28,6.11,13.26,16.2,21.3,29.61
			c8.92,14.88,16.03,30.63,21.13,46.81c6.35,20.16,9.58,41.02,9.58,62.01c0,30.14-8.43,61.52-25.07,93.26
			c-13.3,25.38-28.02,43.65-34.31,51.45c-0.89,1.11-1.6,1.98-2.09,2.62c-0.14,0.18-0.25,0.33-0.35,0.46
			c0.12-0.09,0.25-0.21,0.42-0.34c0.6-0.51,1.4-1.22,2.42-2.13c7-6.26,23.39-20.91,48.07-34.09c30.83-16.47,63.58-24.82,97.32-24.82
			c36.22,0,71.08,9.33,103.6,27.74c11.49,6.5,28.47,17.5,44.3,33.04c-0.09-0.13-0.18-0.26-0.29-0.42c-0.67-0.95-1.64-2.24-2.86-3.87
			c-6.96-9.3-21.43-28.66-34.3-53.97c-15.95-31.38-24.04-61.3-24.04-88.93c0-33.91,9.3-68.05,27.64-101.45
			C163.63-73.2,173.8-89.65,187.99-106.04 M191.58-109.78c0.01,0,0.02,0.01,0.01,0.02c0.18,0.28-61.49,62.53-61.49,149.2
			c0,77.29,63.41,147.21,62.22,148.47c0,0,0,0,0,0c-0.51,0-56.36-61.81-148.88-61.81c-91.57,0-146.7,61.82-148.85,61.82
			c-0.03,0-0.05-0.01-0.06-0.04c-0.62-1.24,62.24-66.4,62.24-148.45c0-91.81-61.12-148.46-62.01-148.68c0,0,0.01-0.01,0.01-0.01
			c1.12,0,64.87,62.02,148.66,62.02c2,0.07,4,0.1,5.97,0.1C135.84-47.12,190.56-109.78,191.58-109.78z"/>
	</g>
	<g id="패스_673" transform="translate(-169.423 -532.975)">
		<path class="st1" d="M77.31-23.32c101.33,3.37,165.44-71.37,165.24-69.75c0.2,0.32-68.58,69.75-68.58,166.41
			c0,86.2,70.72,164.18,69.39,165.6C243.25,239.47,180.88,170,77.31,170s-165.33,70.9-166.08,68.91
			c-0.69-1.39,69.42-74.06,69.42-165.57c0-102.4-68.17-165.59-69.17-165.83C-88.02-93.25-16.66-23.32,77.31-23.32z"/>
		<path class="st2" d="M238.98-89.38C194.36-46.53,139.4-22.95,83.97-22.95c-2.21,0-4.45-0.04-6.66-0.11
			c-53.17,0-110.16-23.06-160.81-65c1.65,1.71,3.83,4.05,6.4,7.03c5.89,6.81,14.79,18.07,23.76,33.03
			c9.95,16.59,17.88,34.16,23.57,52.2c7.09,22.48,10.68,45.75,10.68,69.15c0,33.62-9.41,68.61-27.95,104
			c-14.83,28.3-31.25,48.68-38.26,57.38c-1,1.24-1.79,2.22-2.34,2.94c-0.22,0.28-0.38,0.51-0.51,0.68c0.16-0.12,0.36-0.29,0.62-0.51
			c0.67-0.56,1.57-1.37,2.71-2.39c7.8-6.98,26.08-23.32,53.6-38.01c34.39-18.36,70.9-27.67,108.54-27.67
			c40.4,0,79.27,10.41,115.53,30.94c12.86,7.28,31.9,19.62,49.62,37.05c-0.13-0.2-0.29-0.43-0.49-0.7c-0.75-1.06-1.83-2.5-3.2-4.33
			c-7.76-10.37-23.9-31.96-38.25-60.2c-17.79-34.99-26.8-68.36-26.8-99.18c0-37.82,10.37-75.89,30.82-113.14
			C211.45-52.38,222.93-70.95,238.98-89.38 M242.54-93.09c0.01,0,0.02,0.01,0.02,0.03c0.2,0.32-68.58,69.75-68.58,166.41
			c0,86.2,70.72,164.19,69.39,165.6c0,0,0,0,0,0c-0.57,0-62.86-68.94-166.05-68.94C-24.83,170-86.3,238.95-88.7,238.95
			c-0.03,0-0.06-0.01-0.07-0.04c-0.69-1.39,69.42-74.06,69.42-165.57c0-102.4-68.17-165.59-69.17-165.83c0,0,0.01-0.01,0.01-0.01
			c1.25,0,72.35,69.17,165.81,69.17c2.23,0.07,4.46,0.11,6.66,0.11C180.37-23.21,241.4-93.09,242.54-93.09z"/>
	</g>
	<g id="패스_674" transform="translate(-221.741 -585.275)">
		<path class="st1" d="M129.63,13.61c117.51,3.91,191.87-82.77,191.64-80.89c0.23,0.37-79.54,80.89-79.54,192.98
			c0,99.97,82.02,190.41,80.48,192.05c-0.12,0.61-72.46-79.95-192.57-79.95s-191.74,82.23-192.61,79.92
			c-0.8-1.61,80.51-85.89,80.51-192.02C17.53,6.95-61.53-66.33-62.68-66.6C-62.11-67.49,20.65,13.61,129.63,13.61z"/>
		<path class="st2" d="M317.77-63.69c-51.86,50.11-115.86,77.68-180.42,77.68c-2.56,0-5.16-0.04-7.72-0.13
			C67.77,13.86,1.45-13.05-57.42-62c1.97,2.02,4.69,4.92,7.95,8.69c6.83,7.9,17.14,20.95,27.55,38.3
			C-10.39,4.23-1.19,24.6,5.4,45.52c8.22,26.07,12.38,53.05,12.38,80.19c0,38.98-10.91,79.55-32.41,120.59
			c-17.2,32.82-36.24,56.45-44.37,66.53c-1.17,1.45-2.09,2.59-2.73,3.42c-0.35,0.45-0.58,0.76-0.73,0.98
			c0.21-0.15,0.5-0.38,0.91-0.73c0.78-0.65,1.83-1.6,3.16-2.79c9.05-8.09,30.24-27.04,62.16-44.08
			c39.87-21.29,82.22-32.09,125.85-32.09c25.59,0,51.03,3.7,75.61,10.99c20.05,5.95,39.69,14.32,58.35,24.89
			c14.94,8.46,37.06,22.79,57.63,43.06c0.06,0.06,0.13,0.13,0.19,0.19c-0.2-0.3-0.45-0.67-0.77-1.12c-0.87-1.23-2.13-2.91-3.73-5.05
			c-9-12.03-27.71-37.06-44.36-69.8c-20.62-40.57-31.08-79.26-31.08-115c0-23.96,3.68-48.38,10.95-72.57
			c5.93-19.73,14.27-39.45,24.79-58.62C285.32-20.24,298.83-42.08,317.77-63.69 M321.25-67.31c0.01,0,0.02,0.01,0.02,0.03
			c0.23,0.37-79.54,80.89-79.54,192.99c0,99.97,82.02,190.41,80.48,192.05c0,0,0,0,0,0c-0.66,0-72.9-79.96-192.57-79.96
			c-118.45,0-189.75,79.97-192.53,79.97c-0.04,0-0.06-0.02-0.08-0.05c-0.8-1.61,80.51-85.89,80.51-192.02
			C17.53,6.95-61.53-66.33-62.68-66.6c0,0,0.01-0.01,0.02-0.01c1.45,0,83.91,80.22,192.3,80.22c2.59,0.09,5.17,0.13,7.72,0.13
			C249.16,13.74,319.93-67.31,321.25-67.31z"/>
	</g>
	<g id="패스_675" transform="translate(-290.995 -654.506)">
		<path class="st1" d="M198.89,62.49c138.93,4.63,226.85-97.86,226.58-95.63c0.27,0.44-94.04,95.63-94.04,228.17
			c0,118.19,96.97,225.13,95.15,227.06c-0.15,0.72-85.67-94.53-227.68-94.53s-226.7,97.22-227.72,94.49
			c-0.95-1.9,95.19-101.55,95.19-227.03c0-140.41-93.48-227.05-94.84-227.37C-27.82-33.4,70.04,62.49,198.89,62.49z"/>
		<path class="st2" d="M422.13-29.74C360.68,30,284.68,62.9,208.01,62.9c-3.03,0-6.1-0.05-9.13-0.15
			c-73.37,0-152.06-32.04-221.84-90.27c2.36,2.39,5.82,6.04,10.05,10.93C-7.75-10.63-2.63-4.19,2.32,2.57
			c6.11,8.34,11.95,17.12,17.34,26.11C33.3,51.42,44.17,75.5,51.96,100.23c9.71,30.82,14.64,62.71,14.64,94.79
			c0,46.08-12.89,94.04-38.32,142.56c-20.33,38.8-42.84,66.73-52.45,78.66c-1.39,1.72-2.48,3.08-3.24,4.07
			c-0.52,0.68-0.82,1.1-0.98,1.35c0.04-0.03,0.09-0.06,0.14-0.1c0.27-0.2,0.64-0.49,1.11-0.89c0.92-0.78,2.17-1.9,3.76-3.32
			c10.7-9.56,35.75-31.96,73.48-52.11c47.14-25.17,97.19-37.94,148.78-37.94c30.25,0,60.33,4.37,89.39,12.99
			c23.71,7.03,46.92,16.93,68.98,29.42c17.66,10,43.81,26.94,68.12,50.91c0.18,0.18,0.36,0.35,0.52,0.51
			c-0.25-0.41-0.62-0.95-1.11-1.64c-1.03-1.45-2.53-3.46-4.43-6c-10.64-14.22-32.77-43.82-52.44-82.52
			c-24.38-47.96-36.74-93.7-36.74-135.94c0-28.33,4.36-57.19,12.94-85.79c7-23.32,16.87-46.64,29.31-69.3
			C383.11,22.3,399.34-3.92,422.13-29.74 M425.44-33.18c0.02,0,0.02,0.01,0.02,0.04c0.27,0.44-94.04,95.63-94.04,228.17
			c0,118.2,96.97,225.13,95.15,227.06c0,0,0,0-0.01,0c-0.78,0-86.19-94.53-227.68-94.53c-140.05,0-224.34,94.55-227.63,94.55
			c-0.05,0-0.08-0.02-0.09-0.06c-0.95-1.9,95.19-101.55,95.19-227.03c0-140.41-93.48-227.05-94.84-227.37
			c0-0.01,0.01-0.01,0.02-0.01c1.72,0,99.21,94.85,227.36,94.85c3.06,0.1,6.12,0.15,9.13,0.15
			C340.2,62.64,423.87-33.18,425.44-33.18z"/>
	</g>
	<g id="패스_676" transform="translate(-365.992 -729.478)">
		<path class="st1" d="M273.88,115.42C436.02,120.82,538.62,1.22,538.3,3.82c0.32,0.51-109.74,111.6-109.74,266.27
			c0,137.93,113.17,262.72,111.04,264.98c-0.17,0.84-99.98-110.31-265.71-110.31S9.32,538.21,8.13,535.03
			c-1.11-2.22,111.08-118.51,111.08-264.94C119.22,106.24,10.13,5.13,8.54,4.75C9.32,3.52,123.52,115.42,273.88,115.42z"/>
		<path class="st2" d="M535.2,6.96c-0.01,0.01-0.01,0.01-0.02,0.02c-71.84,70.21-160.86,108.88-250.65,108.88
			c-3.53,0-7.12-0.06-10.66-0.18c-30.87,0-62.62-4.77-94.34-14.19c-26.12-7.75-52.5-18.72-78.42-32.6
			C81.55,58.41,62.25,46.28,43.74,32.83C30.18,22.97,20.31,14.79,14.36,9.79c2.76,2.77,7.02,7.23,12.34,13.38
			c6.01,6.96,11.99,14.48,17.77,22.36c7.13,9.73,13.94,19.98,20.23,30.47c15.92,26.54,28.6,54.63,37.7,83.5
			c11.33,35.96,17.08,73.18,17.08,110.61c0,53.76-15.04,109.73-44.71,166.35c-23.73,45.28-49.99,77.87-61.21,91.79
			c-1.63,2.02-2.91,3.61-3.8,4.77c-0.72,0.93-1.07,1.44-1.23,1.72c0.08-0.05,0.18-0.11,0.31-0.2c0.32-0.23,0.74-0.56,1.3-1.03
			c1.08-0.91,2.55-2.22,4.42-3.89c12.48-11.16,41.72-37.3,85.74-60.81c55-29.37,113.41-44.27,173.6-44.27
			c35.3,0,70.39,5.1,104.3,15.16c27.66,8.2,54.74,19.75,80.49,34.33c20.61,11.66,51.12,31.44,79.49,59.4
			c0.31,0.31,0.6,0.59,0.84,0.83c-0.02-0.04-0.05-0.09-0.08-0.13c-0.3-0.49-0.74-1.16-1.37-2.04c-1.21-1.7-2.97-4.05-5.19-7.03
			c-12.41-16.6-38.23-51.13-61.2-96.3c-28.45-55.97-42.88-109.34-42.88-158.63c0-33.05,5.08-66.73,15.1-100.1
			c8.17-27.21,19.68-54.42,34.2-80.86C489.02,68.34,508.21,37.37,535.2,6.96 M538.27,3.78c0.02,0,0.03,0.01,0.03,0.04
			c0.32,0.51-109.74,111.6-109.74,266.27c0,137.93,113.17,262.72,111.04,264.98c0,0,0,0-0.01,0c-0.91,0-100.59-110.32-265.7-110.32
			C110.45,424.76,12.08,535.1,8.24,535.1c-0.05,0-0.09-0.02-0.11-0.07c-1.11-2.22,111.08-118.51,111.08-264.94
			C119.22,106.23,10.13,5.13,8.54,4.75c0-0.01,0.01-0.01,0.02-0.01c2.01,0,115.78,110.69,265.32,110.69
			c3.57,0.12,7.14,0.18,10.65,0.18C438.8,115.6,536.45,3.78,538.27,3.78z"/>
	</g>
	<g id="패스_677" transform="translate(-480.201 -843.648)">
		<path class="st1" d="M388.1,196.03c197.47,6.58,322.42-139.08,322.03-135.93c0.39,0.62-133.66,135.92-133.66,324.3
			c0,167.99,137.83,319.97,135.23,322.73c-0.21,1.02-121.76-134.35-323.61-134.35S65.88,710.95,64.43,707.08
			c-1.35-2.7,135.29-144.33,135.29-322.67c0-199.56-132.86-322.7-134.79-323.17C65.89,59.75,204.97,196.03,388.1,196.03z"/>
		<path class="st2" d="M707.45,62.78c-0.35,0.34-0.74,0.72-1.15,1.13c-87.49,85.5-195.89,132.59-305.23,132.59
			c-4.3,0-8.67-0.07-12.98-0.22c-9.97,0-20.13-0.41-30.2-1.22c-9.68-0.78-19.53-1.95-29.28-3.48c-9.35-1.46-18.86-3.3-28.26-5.45
			c-8.99-2.06-18.12-4.46-27.15-7.13c-31.81-9.44-63.94-22.79-95.5-39.7c-23.83-12.76-47.33-27.53-69.87-43.91
			c-7.91-5.75-15.77-11.75-23.37-17.85c-5.65-4.53-10.19-8.33-13.43-11.07c0.14,0.14,0.28,0.27,0.42,0.42
			c3.33,3.32,8.73,8.92,15.54,16.81c7.32,8.47,14.6,17.63,21.63,27.23c8.69,11.85,16.98,24.33,24.64,37.1
			c19.38,32.32,34.83,66.53,45.91,101.68c13.8,43.79,20.8,89.11,20.8,134.7c0,65.47-18.32,133.63-54.45,202.57
			c-12.4,23.65-26.89,47.32-43.08,70.33c-13.35,18.97-24.68,33.04-31.46,41.44c-1.99,2.48-3.57,4.43-4.65,5.84
			c-0.56,0.73-0.97,1.28-1.24,1.69c-0.17,0.26-0.27,0.43-0.33,0.55c0.11-0.06,0.27-0.15,0.51-0.32c0.39-0.27,0.9-0.68,1.58-1.25
			c1.31-1.11,3.13-2.72,5.42-4.78c15.2-13.59,50.81-45.42,104.42-74.05c66.98-35.77,138.11-53.91,211.41-53.91
			c11.43,0,22.97,0.44,34.3,1.31c10.88,0.84,21.86,2.09,32.64,3.73c10.31,1.57,20.72,3.52,30.92,5.82
			c9.73,2.19,19.54,4.75,29.16,7.6c33.68,9.99,66.67,24.06,98.02,41.81c25.09,14.2,62.26,38.28,96.8,72.33
			c0.52,0.52,0.97,0.96,1.3,1.27c-0.07-0.13-0.15-0.27-0.26-0.45c-0.36-0.59-0.9-1.4-1.66-2.48c-1.47-2.07-3.63-4.96-6.36-8.61
			c-7.6-10.16-19.08-25.52-32.36-45.47c-7.31-10.99-14.32-22.12-20.82-33.07c-7.66-12.91-14.84-25.94-21.35-38.73
			c-34.65-68.16-52.21-133.15-52.21-193.17c0-10.7,0.44-21.58,1.31-32.33c0.83-10.32,2.08-20.8,3.71-31.16
			c1.56-9.91,3.51-19.96,5.8-29.89c2.18-9.47,4.73-19.06,7.57-28.52c9.95-33.14,23.97-66.27,41.65-98.47
			C650.3,138.45,674.02,100.2,707.45,62.78 M710.1,60.06c0.02,0,0.03,0.02,0.03,0.05c0.39,0.62-133.66,135.92-133.66,324.3
			c0,167.99,137.83,319.97,135.23,322.73c0,0,0,0.01-0.01,0.01c-1.11,0-122.51-134.36-323.6-134.36
			c-199.05,0-318.86,134.38-323.53,134.38c-0.07,0-0.11-0.03-0.13-0.08c-1.35-2.7,135.29-144.33,135.29-322.67
			c0-199.56-132.86-322.7-134.79-323.17c0.01-0.01,0.01-0.01,0.03-0.01c2.44,0,141.01,134.81,323.14,134.81
			c4.35,0.14,8.69,0.22,12.97,0.22C588.95,196.25,707.87,60.06,710.1,60.06z"/>
	</g>
	<g id="패스_678" transform="translate(-604.506 -967.912)">
		<path class="st1" d="M512.4,283.77c235.92,7.86,385.21-166.17,384.74-162.4c0.46,0.74-159.69,162.39-159.69,387.45
			c0,200.71,164.67,382.28,161.57,385.57c-0.25,1.22-145.48-160.52-386.63-160.52S127.45,898.96,125.71,894.33
			c-1.61-3.23,161.64-172.44,161.64-385.51c0-238.43-158.73-385.54-161.04-386.1C127.45,120.94,293.61,283.77,512.4,283.77z"/>
		<path class="st2" d="M894.92,123.56c-0.66,0.64-1.46,1.42-2.39,2.33c-104.52,102.14-234.01,158.4-364.63,158.4
			c-5.14,0-10.36-0.09-15.51-0.26c-11.91,0-24.05-0.49-36.07-1.46c-11.56-0.93-23.33-2.33-34.98-4.15
			c-11.17-1.75-22.53-3.94-33.76-6.51c-10.74-2.46-21.65-5.32-32.43-8.52c-38-11.27-76.38-27.23-114.09-47.43
			c-28.46-15.24-56.55-32.89-83.47-52.46c-9.45-6.87-18.84-14.04-27.92-21.32c-7.34-5.89-13.11-10.75-17.03-14.06
			c0.44,0.43,0.92,0.9,1.42,1.4c3.98,3.96,10.43,10.66,18.57,20.08c8.75,10.12,17.44,21.06,25.85,32.52
			c10.38,14.15,20.28,29.07,29.43,44.33c23.16,38.61,41.61,79.48,54.84,121.47c3.82,12.11,7.24,24.46,10.18,36.73
			c3.09,12.91,5.73,26.07,7.84,39.12c2.21,13.68,3.91,27.62,5.04,41.42c1.18,14.43,1.78,29.11,1.78,43.64
			c0,78.21-21.89,159.63-65.05,242c-8.01,15.29-16.84,30.72-26.23,45.86c-7.92,12.77-16.41,25.61-25.24,38.16
			c-15.95,22.67-29.49,39.47-37.58,49.51c-2.4,2.98-4.29,5.33-5.59,7.01c-0.67,0.88-1.16,1.54-1.48,2.02
			c-0.27,0.4-0.39,0.63-0.44,0.75c0.12-0.05,0.35-0.17,0.73-0.44c0.46-0.32,1.08-0.81,1.89-1.5c1.57-1.32,3.74-3.26,6.48-5.71
			c18.16-16.24,60.7-54.26,124.74-88.46c80.02-42.73,164.99-64.4,252.55-64.4c13.65,0,27.44,0.53,40.98,1.57
			c13,1,26.11,2.5,38.99,4.45c12.32,1.87,24.75,4.21,36.94,6.95c11.63,2.62,23.35,5.67,34.83,9.08
			c40.24,11.93,79.64,28.74,117.1,49.95c15.15,8.57,30.09,17.94,44.42,27.84c11.85,8.19,23.41,16.83,34.39,25.71
			c19.48,15.75,32.09,28.18,36.84,32.86c0.74,0.73,1.36,1.34,1.76,1.72c-0.09-0.18-0.22-0.43-0.41-0.76
			c-0.42-0.7-1.07-1.67-1.98-2.96c-1.76-2.48-4.35-5.95-7.64-10.34c-9.08-12.14-22.8-30.48-38.66-54.32
			c-8.74-13.13-17.11-26.43-24.87-39.51c-9.15-15.42-17.73-30.99-25.51-46.27c-41.39-81.42-62.37-159.06-62.37-230.76
			c0-12.78,0.53-25.78,1.56-38.62c1-12.33,2.49-24.85,4.44-37.22c1.86-11.84,4.2-23.85,6.93-35.7c2.61-11.31,5.65-22.77,9.05-34.07
			c11.89-39.59,28.63-79.17,49.76-117.64c16.9-30.78,45.52-76.91,85.9-121.91C894.87,123.62,894.9,123.59,894.92,123.56
			 M897.11,121.31c0.03,0,0.04,0.02,0.04,0.06c0.46,0.74-159.69,162.39-159.69,387.45c0,200.71,164.67,382.28,161.57,385.57
			c0,0,0,0.01-0.01,0.01c-1.32,0-146.37-160.52-386.62-160.52c-237.81,0-380.95,160.55-386.54,160.55c-0.08,0-0.13-0.03-0.15-0.1
			c-1.61-3.23,161.64-172.44,161.64-385.51c0-238.43-158.73-385.54-161.04-386.1c0.01-0.01,0.02-0.01,0.03-0.01
			c2.92,0,168.47,161.06,386.07,161.06c5.2,0.17,10.39,0.26,15.5,0.26C752.37,284.03,894.45,121.31,897.11,121.31z"/>
	</g>
</g>
</svg>
